<svg xmlns="http://www.w3.org/2000/svg" width="1360" viewBox="0 0 680 1020">
<defs>
  <marker id="arrow" viewBox="0 0 10 10" refX="8" refY="5" markerWidth="6" markerHeight="6" orient="auto-start-reverse">
    <path d="M2 1L8 5L2 9" fill="none" stroke="context-stroke" stroke-width="1.5" stroke-linecap="round" stroke-linejoin="round"/>
  </marker>
  <style>
    text { font-family: Arial, Helvetica, sans-serif; fill: #1a1a1a; }
    .th { font-size: 14px; font-weight: 600; }
    .ts { font-size: 12px; font-weight: 400; fill: #444; }
    .arr { stroke: #888; stroke-width: 1.2; fill: none; }
    .c-gray rect, .c-gray circle { fill: #f1efe8; stroke: #888780; }
    .c-gray text { fill: #444441; }
    .c-blue rect, .c-blue circle { fill: #e6f1fb; stroke: #185fa5; }
    .c-blue text { fill: #0c447c; }
    .c-blue .ts { fill: #185fa5; }
    .c-teal rect, .c-teal circle { fill: #e1f5ee; stroke: #0f6e56; }
    .c-teal text { fill: #085041; }
    .c-teal .ts { fill: #0f6e56; }
    .c-purple rect, .c-purple circle { fill: #eeedfe; stroke: #534ab7; }
    .c-purple text { fill: #3c3489; }
    .c-purple .ts { fill: #534ab7; }
    .c-coral rect, .c-coral circle { fill: #faece7; stroke: #993c1d; }
    .c-coral text { fill: #712b13; }
    .c-coral .ts { fill: #993c1d; }
    .c-amber rect, .c-amber circle { fill: #faeeda; stroke: #854f0b; }
    .c-amber text { fill: #633806; }
    .c-amber .ts { fill: #854f0b; }
    .pill rect { fill: #f1efe8; stroke: #b4b2a9; }
    .pill text { fill: #444441; font-size: 12px; }
  </style>
</defs>

<!-- INTERNET -->
<g class="c-gray">
  <rect x="240" y="20" width="200" height="40" rx="8" stroke-width="0.5"/>
  <text class="th" x="340" y="40" text-anchor="middle" dominant-baseline="central">Internet</text>
</g>

<line x1="340" y1="60" x2="340" y2="88" class="arr" marker-end="url(#arrow)"/>
<text class="ts" x="358" y="77" dominant-baseline="central">ISP / cat-5e</text>

<!-- ROUTER -->
<g class="c-blue">
  <rect x="210" y="90" width="260" height="52" rx="8" stroke-width="0.5"/>
  <text class="th" x="340" y="108" text-anchor="middle" dominant-baseline="central">UniFi UCG-Max</text>
  <text class="ts" x="340" y="128" text-anchor="middle" dominant-baseline="central">Gateway · firewall · 2.5GbE ports</text>
</g>

<line x1="210" y1="116" x2="152" y2="116" class="arr" marker-end="url(#arrow)"/>
<g class="c-gray">
  <rect x="40" y="97" width="112" height="40" rx="8" stroke-width="0.5"/>
  <text class="th" x="96" y="117" text-anchor="middle" dominant-baseline="central">Workstation</text>
</g>
<text class="ts" x="180" y="107" text-anchor="middle">cat-7 / 2.5G</text>

<line x1="298" y1="142" x2="204" y2="216" class="arr" marker-end="url(#arrow)"/>
<text class="ts" x="222" y="184" text-anchor="middle">cat-7 / 2.5G</text>

<line x1="392" y1="142" x2="476" y2="216" class="arr" marker-end="url(#arrow)"/>
<text class="ts" x="460" y="184" text-anchor="middle">cat-5e / 1G</text>

<!-- USW PRO MAX 24 -->
<g class="c-blue">
  <rect x="60" y="218" width="240" height="52" rx="8" stroke-width="0.5"/>
  <text class="th" x="180" y="236" text-anchor="middle" dominant-baseline="central">USW Pro Max 24</text>
  <text class="ts" x="180" y="256" text-anchor="middle" dominant-baseline="central">24-port · 1GbE / 2.5GbE uplinks</text>
</g>

<!-- USW FLEX XG -->
<g class="c-blue">
  <rect x="380" y="218" width="240" height="52" rx="8" stroke-width="0.5"/>
  <text class="th" x="500" y="236" text-anchor="middle" dominant-baseline="central">USW Flex XG</text>
  <text class="ts" x="500" y="256" text-anchor="middle" dominant-baseline="central">5-port · 10GbE</text>
</g>

<line x1="180" y1="270" x2="180" y2="308" class="arr" marker-end="url(#arrow)"/>
<line x1="500" y1="270" x2="500" y2="308" class="arr" marker-end="url(#arrow)"/>

<text class="ts" x="340" y="294" text-anchor="middle" dominant-baseline="central">── Homelab services ──</text>

<!-- PROXMOX CLUSTER -->
<g class="c-teal">
  <rect x="30" y="308" width="620" height="574" rx="16" stroke-width="0.5"/>
  <text class="th" x="340" y="332" text-anchor="middle" dominant-baseline="central">Proxmox cluster · 15 nodes</text>
  <text class="ts" x="340" y="350" text-anchor="middle" dominant-baseline="central">6 tower servers · 2 Dell PowerEdge rack servers · 7 mini PCs</text>
</g>

<!-- 10GbE tier -->
<g class="c-purple">
  <rect x="48" y="364" width="274" height="90" rx="10" stroke-width="0.5"/>
  <text class="th" x="185" y="384" text-anchor="middle" dominant-baseline="central">10GbE tier (serv01–04)</text>
  <text class="ts" x="185" y="402" text-anchor="middle" dominant-baseline="central">Primary workloads · cat-7</text>
  <text class="ts" x="185" y="420" text-anchor="middle" dominant-baseline="central">NAS · PBS · observability · auth · PKI</text>
  <text class="ts" x="185" y="438" text-anchor="middle" dominant-baseline="central">reverse proxies · mgmt stack</text>
</g>

<!-- 1GbE tier -->
<g class="c-purple">
  <rect x="358" y="364" width="274" height="90" rx="10" stroke-width="0.5"/>
  <text class="th" x="495" y="384" text-anchor="middle" dominant-baseline="central">1GbE / 2.5GbE tier</text>
  <text class="ts" x="495" y="402" text-anchor="middle" dominant-baseline="central">serv05–06 · mini01–07 · R340 · R430</text>
  <text class="ts" x="495" y="420" text-anchor="middle" dominant-baseline="central">Lightweight services · expansion</text>
  <text class="ts" x="495" y="438" text-anchor="middle" dominant-baseline="central">Secrets · future workloads</text>
</g>

<!-- INTERNAL ONLY -->
<g class="c-teal">
  <rect x="48" y="472" width="584" height="62" rx="10" stroke-width="0.5"/>
  <text class="th" x="340" y="492" text-anchor="middle" dominant-baseline="central">Internal only</text>
</g>
<g class="pill"><rect x="62" y="504" width="112" height="24" rx="6" stroke-width="0.5"/><text x="118" y="516" text-anchor="middle" dominant-baseline="central">PBS · ZFS · NFS</text></g>
<g class="pill"><rect x="182" y="504" width="118" height="24" rx="6" stroke-width="0.5"/><text x="241" y="516" text-anchor="middle" dominant-baseline="central">step-ca · Root CA</text></g>
<g class="pill"><rect x="308" y="504" width="90" height="24" rx="6" stroke-width="0.5"/><text x="353" y="516" text-anchor="middle" dominant-baseline="central">Alertmanager</text></g>
<g class="pill"><rect x="406" y="504" width="90" height="24" rx="6" stroke-width="0.5"/><text x="451" y="516" text-anchor="middle" dominant-baseline="central">Chrony (NTP)</text></g>
<g class="pill"><rect x="504" y="504" width="116" height="24" rx="6" stroke-width="0.5"/><text x="562" y="516" text-anchor="middle" dominant-baseline="central">Ansible · Semaphore</text></g>

<!-- VPN EXPOSED DIRECT -->
<g class="c-blue">
  <rect x="48" y="546" width="584" height="62" rx="10" stroke-width="0.5"/>
  <text class="th" x="340" y="566" text-anchor="middle" dominant-baseline="central">VPN exposed · direct (Tailscale)</text>
</g>
<g class="pill"><rect x="62" y="578" width="120" height="24" rx="6" stroke-width="0.5"/><text x="122" y="590" text-anchor="middle" dominant-baseline="central">DNS (Technitium)</text></g>
<g class="pill"><rect x="190" y="578" width="106" height="24" rx="6" stroke-width="0.5"/><text x="243" y="590" text-anchor="middle" dominant-baseline="central">Gitea · Portainer</text></g>
<g class="pill"><rect x="304" y="578" width="136" height="24" rx="6" stroke-width="0.5"/><text x="372" y="590" text-anchor="middle" dominant-baseline="central">Reverse proxies (Traefik)</text></g>
<g class="pill"><rect x="448" y="578" width="172" height="24" rx="6" stroke-width="0.5"/><text x="534" y="590" text-anchor="middle" dominant-baseline="central">Proxmox / PBS web consoles</text></g>

<!-- VPN EXPOSED REVERSE PROXY ONLY -->
<g class="c-blue">
  <rect x="48" y="620" width="584" height="62" rx="10" stroke-width="0.5"/>
  <text class="th" x="340" y="640" text-anchor="middle" dominant-baseline="central">VPN exposed · reverse-proxy only (Traefik → service)</text>
</g>
<g class="pill"><rect x="62" y="652" width="90" height="24" rx="6" stroke-width="0.5"/><text x="107" y="664" text-anchor="middle" dominant-baseline="central">Vaultwarden</text></g>
<g class="pill"><rect x="160" y="652" width="82" height="24" rx="6" stroke-width="0.5"/><text x="201" y="664" text-anchor="middle" dominant-baseline="central">Authentik</text></g>
<g class="pill"><rect x="250" y="652" width="68" height="24" rx="6" stroke-width="0.5"/><text x="284" y="664" text-anchor="middle" dominant-baseline="central">Grafana</text></g>
<g class="pill"><rect x="326" y="652" width="72" height="24" rx="6" stroke-width="0.5"/><text x="362" y="664" text-anchor="middle" dominant-baseline="central">Portainer</text></g>
<g class="pill"><rect x="406" y="652" width="214" height="24" rx="6" stroke-width="0.5"/><text x="513" y="664" text-anchor="middle" dominant-baseline="central">Future proxied services (planned)</text></g>

<!-- INTERNET FACING -->
<g class="c-coral">
  <rect x="48" y="694" width="584" height="62" rx="10" stroke-width="0.5"/>
  <text class="th" x="340" y="714" text-anchor="middle" dominant-baseline="central">Internet facing</text>
</g>
<g class="pill"><rect x="62" y="726" width="130" height="24" rx="6" stroke-width="0.5"/><text x="127" y="738" text-anchor="middle" dominant-baseline="central">Game servers (VLAN)</text></g>
<g class="pill"><rect x="200" y="726" width="126" height="24" rx="6" stroke-width="0.5"/><text x="263" y="738" text-anchor="middle" dominant-baseline="central">Cloudflare Tunnel</text></g>
<g class="pill"><rect x="334" y="726" width="116" height="24" rx="6" stroke-width="0.5"/><text x="392" y="738" text-anchor="middle" dominant-baseline="central">DDNS (Cloudflare)</text></g>
<g class="pill"><rect x="458" y="726" width="162" height="24" rx="6" stroke-width="0.5"/><text x="539" y="738" text-anchor="middle" dominant-baseline="central">Future services (planned)</text></g>

<!-- BOTTOM ROW -->
<g class="c-coral">
  <rect x="30" y="900" width="180" height="50" rx="10" stroke-width="0.5"/>
  <text class="th" x="120" y="918" text-anchor="middle" dominant-baseline="central">Tailscale mesh</text>
  <text class="ts" x="120" y="936" text-anchor="middle" dominant-baseline="central">Remote access · all nodes</text>
</g>
<g class="c-coral">
  <rect x="250" y="900" width="180" height="50" rx="10" stroke-width="0.5"/>
  <text class="th" x="340" y="918" text-anchor="middle" dominant-baseline="central">Cloudflare</text>
  <text class="ts" x="340" y="936" text-anchor="middle" dominant-baseline="central">DNS · DDNS · Tunnel · R2</text>
</g>
<g class="c-amber">
  <rect x="470" y="900" width="180" height="50" rx="10" stroke-width="0.5"/>
  <text class="th" x="560" y="918" text-anchor="middle" dominant-baseline="central">Power protection</text>
  <text class="ts" x="560" y="936" text-anchor="middle" dominant-baseline="central">2× CyberPower · 2× APC UPS</text>
</g>

<!-- LEGEND -->
<g class="c-teal"><rect x="30" y="966" width="12" height="12" rx="2" stroke-width="0.5"/></g>
<text class="ts" x="48" y="972" dominant-baseline="central">Proxmox / compute</text>
<g class="c-purple"><rect x="178" y="966" width="12" height="12" rx="2" stroke-width="0.5"/></g>
<text class="ts" x="196" y="972" dominant-baseline="central">Node tiers</text>
<g class="c-blue"><rect x="278" y="966" width="12" height="12" rx="2" stroke-width="0.5"/></g>
<text class="ts" x="296" y="972" dominant-baseline="central">VPN exposed</text>
<g class="c-coral"><rect x="390" y="966" width="12" height="12" rx="2" stroke-width="0.5"/></g>
<text class="ts" x="408" y="972" dominant-baseline="central">Internet facing / external</text>
<g class="c-amber"><rect x="560" y="966" width="12" height="12" rx="2" stroke-width="0.5"/></g>
<text class="ts" x="578" y="972" dominant-baseline="central">Power</text>

</svg>
